<svg width="54" height="79" viewBox="0 0 54 79" fill="none" xmlns="http://www.w3.org/2000/svg">
<path d="M29.9333 1.9C29.0333 4.06667 27.8999 5.50001 22.2333 11.4C16.3999 17.4667 13.3333 21.2 10.0666 26.1667C7.83327 29.5667 3.53327 37.6667 3.83327 37.9333C3.93327 38.0333 4.26661 37.8667 4.56661 37.6C5.69994 36.6 9.29994 35 11.0666 34.7333C13.3999 34.3667 19.4666 34.8 22.0999 35.5333C28.6333 37.3 35.9666 42.4 38.2333 46.7667C39.8666 49.9 38.6333 53.3333 35.8333 53.3333C34.8666 53.3333 32.6999 52.3 31.1666 51.1333C27.8666 48.6333 22.7999 48.5 20.0333 50.9C17.9333 52.7 16.8999 54.9667 16.8999 57.8333C16.9333 61.7333 18.4999 64.9333 22.0333 68.5667C24.2333 70.8 26.0666 71.7667 29.4333 72.4667C32.6333 73.1333 34.0333 73.1333 37.2666 72.4667C42.6666 71.3667 46.9666 68.4333 49.5333 64.1333C54.0333 56.5 54.4999 49.6 50.9666 42.3333C49.6666 39.7 49.1333 39.0667 43.0333 33C36.1999 26.2 33.8333 23.2 31.8333 18.9C29.6333 14.1333 29.1666 10.1 30.1999 4.96667C30.4666 3.56667 30.6666 1.96667 30.5999 1.43333C30.4999 0.53334 30.4666 0.53334 29.9333 1.9Z" fill="#F7F7F7"/>
<path d="M11 37.9333C1.29997 40.5333 -2.20003 51.2333 3.13331 62.1667C4.93331 65.9 6.96664 68.6 10.2333 71.6667C14.2333 75.4 18.0666 77.3 23.1333 78C27.6 78.6667 27.8333 77.7 23.7666 75.6667C19.8333 73.7333 16.9333 70.8333 15.0333 66.9667C13.1 63.0333 12.5333 60.5333 12.7333 56.7667C12.9666 52.8333 14.1333 50.1667 16.7666 47.8C19.4333 45.4 20.9 44.8333 24.6666 44.8333C27.5 44.8333 28.0333 44.9333 29.6 45.7667C30.5666 46.2667 32.2666 47.6 33.4 48.6667C34.5 49.7667 35.5666 50.5667 35.7 50.4667C36.4 50.0333 35.9333 48.3 34.6 46.3C31.1 41.1 24.6666 38 16.3333 37.5C13.9 37.3667 12.6666 37.4667 11 37.9333Z" fill="#F7F7F7"/>
</svg>
