<svg width="100" height="100" viewBox="0 0 100 100" fill="none" xmlns="http://www.w3.org/2000/svg">
<path d="M52.9333 10.9C52.0333 13.0667 50.9 14.5 45.2333 20.4C39.4 26.4667 36.3333 30.2 33.0667 35.1667C30.8333 38.5667 26.5333 46.6667 26.8333 46.9333C26.9333 47.0333 27.2667 46.8667 27.5667 46.6C28.7 45.6 32.3 44 34.0667 43.7333C36.4 43.3667 42.4667 43.8 45.1 44.5333C51.6333 46.3 58.9667 51.4 61.2333 55.7667C62.8667 58.9 61.6333 62.3333 58.8333 62.3333C57.8667 62.3333 55.7 61.3 54.1667 60.1333C50.8667 57.6333 45.8 57.5 43.0333 59.9C40.9333 61.7 39.9 63.9667 39.9 66.8333C39.9333 70.7333 41.5 73.9333 45.0333 77.5667C47.2333 79.8 49.0667 80.7667 52.4333 81.4667C55.6333 82.1333 57.0333 82.1333 60.2667 81.4667C65.6667 80.3667 69.9667 77.4333 72.5333 73.1333C77.0333 65.5 77.5 58.6 73.9667 51.3333C72.6667 48.7 72.1333 48.0667 66.0333 42C59.2 35.2 56.8333 32.2 54.8333 27.9C52.6333 23.1333 52.1667 19.1 53.2 13.9667C53.4667 12.5667 53.6667 10.9667 53.6 10.4333C53.5 9.53335 53.4667 9.53335 52.9333 10.9Z" fill="#50C878"/>
<path d="M34 46.9334C24.3 49.5334 20.8 60.2334 26.1333 71.1667C27.9333 74.9 29.9667 77.6 33.2333 80.6667C37.2333 84.4 41.0667 86.3 46.1333 87C50.6 87.6667 50.8333 86.7 46.7667 84.6667C42.8333 82.7334 39.9333 79.8334 38.0333 75.9667C36.1 72.0334 35.5333 69.5334 35.7333 65.7667C35.9667 61.8334 37.1333 59.1667 39.7667 56.8C42.4333 54.4 43.9 53.8334 47.6667 53.8334C50.5 53.8334 51.0333 53.9334 52.6 54.7667C53.5667 55.2667 55.2667 56.6 56.4 57.6667C57.5 58.7667 58.5667 59.5667 58.7 59.4667C59.4 59.0334 58.9333 57.3 57.6 55.3C54.1 50.1 47.6667 47 39.3333 46.5C36.9 46.3667 35.6667 46.4667 34 46.9334Z" fill="#50C878"/>
</svg>
